<?xml version="1.0" standalone="no"?>
<!DOCTYPE svg PUBLIC "-//W3C//DTD SVG 20010904//EN"
 "http://www.w3.org/TR/2001/REC-SVG-20010904/DTD/svg10.dtd">
<svg version="1.0" xmlns="http://www.w3.org/2000/svg"
 width="1200.000000pt" height="1200.000000pt" viewBox="0 0 1200.000000 1200.000000"
 preserveAspectRatio="xMidYMid meet">
<metadata>
Created by potrace 1.14, written by Peter Selinger 2001-2017
</metadata>
<g transform="translate(0.000000,1200.000000) scale(0.100000,-0.100000)"
fill="#000000" stroke="none">
<path d="M2782 5998 l3 -4253 3220 0 3220 0 2 4253 1 4252 -3224 0 -3224 0 2
-4252z m6256 4068 c4 -4 7 -1839 7 -4077 l0 -4069 -3045 0 -3045 0 1 4073 c1
2239 2 4074 3 4077 2 8 6071 3 6079 -4z"/>
<path d="M4865 5966 l0 -2451 645 0 c650 0 747 4 875 31 387 83 641 325 749
714 55 197 55 196 52 1725 -2 1292 -5 1470 -22 1545 -3 14 -8 36 -10 50 -31
168 -117 366 -208 475 -156 188 -331 284 -621 342 -68 14 -185 16 -770 18
l-691 3 1 -2452z m1323 1726 c119 -46 178 -123 219 -287 4 -16 8 -658 9 -1425
3 -1527 5 -1463 -56 -1587 -48 -97 -134 -157 -245 -171 -27 -4 -147 -7 -265
-7 l-215 0 0 1751 0 1752 250 -2 c226 -3 255 -5 303 -24z"/>
</g>
</svg>
